<?xml version="1.0" encoding="UTF-8" standalone="no"?>
<!-- Generator: Adobe Illustrator 25.0.1, SVG Export Plug-In . SVG Version: 6.00 Build 0)  -->

<svg
   version="1.0"
   id="svg2"
   x="0px"
   y="0px"
   viewBox="0 0 449.9 379.5"
   style="enable-background:new 0 0 449.9 379.5;"
   xml:space="preserve"
   sodipodi:docname="alg.svg"
   inkscape:version="1.3.2 (091e20e, 2023-11-25)"
   xmlns:inkscape="http://www.inkscape.org/namespaces/inkscape"
   xmlns:sodipodi="http://sodipodi.sourceforge.net/DTD/sodipodi-0.dtd"
   xmlns="http://www.w3.org/2000/svg"
   xmlns:svg="http://www.w3.org/2000/svg"><defs
   id="defs20"><filter
     style="color-interpolation-filters:sRGB;"
     inkscape:label="Duochrome"
     id="filter459"
     x="0"
     y="0"
     width="1"
     height="1"><feColorMatrix
       type="luminanceToAlpha"
       result="colormatrix1"
       id="feColorMatrix455" /><feFlood
       flood-opacity="1"
       flood-color="rgb(254,254,254)"
       result="flood1"
       id="feFlood455" /><feComposite
       in2="colormatrix1"
       operator="in"
       result="composite1"
       id="feComposite455" /><feFlood
       flood-opacity="0"
       flood-color="rgb(0,0,0)"
       result="flood2"
       id="feFlood456" /><feComposite
       in2="colormatrix1"
       result="composite2"
       operator="out"
       id="feComposite456" /><feComposite
       in="composite2"
       in2="composite1"
       k2="1"
       k3="1"
       operator="arithmetic"
       result="composite3"
       id="feComposite457" /><feColorMatrix
       in="composite3"
       type="matrix"
       values="2 -1 0 0 0 0 2 -1 0 0 -1 0 2 0 0 0 0 0 1 0 "
       result="colormatrix2"
       id="feColorMatrix457" /><feComposite
       in="colormatrix2"
       in2="composite3"
       operator="arithmetic"
       k2="0"
       result="composite4"
       id="feComposite458" /><feBlend
       in="composite4"
       in2="composite3"
       mode="normal"
       result="blend"
       id="feBlend458" /><feComposite
       in2="SourceGraphic"
       operator="in"
       id="feComposite459" /></filter></defs><sodipodi:namedview
   id="namedview20"
   pagecolor="#ffffff"
   bordercolor="#000000"
   borderopacity="0.25"
   inkscape:showpageshadow="2"
   inkscape:pageopacity="0.0"
   inkscape:pagecheckerboard="0"
   inkscape:deskcolor="#d1d1d1"
   inkscape:zoom="1.3595149"
   inkscape:cx="245.67586"
   inkscape:cy="208.53026"
   inkscape:window-width="1376"
   inkscape:window-height="784"
   inkscape:window-x="209"
   inkscape:window-y="25"
   inkscape:window-maximized="0"
   inkscape:current-layer="svg2" />
<style
   type="text/css"
   id="style1">
	.st0{fill:#3A0008;}
	.st1{fill:#FFFFFF;}
	.st2{fill:url(#path44_1_);}
	.st3{fill:url(#path68_1_);}
	.st4{fill:url(#path92_1_);}
	.st5{fill:url(#path116_1_);}
	.st6{fill:url(#path140_1_);}
</style>
<g
   id="g10"
   transform="matrix(1.25 0 0 -1.25 -834.3793 -77.92297)"
   style="filter:url(#filter459)">
	<g
   id="g1">
		<path
   id="path16"
   class="st0"
   d="M992.3-291.1H702.6v154h289.7V-291.1z" />
		<path
   id="path18"
   class="st1"
   d="M760.6-242.9l-11.3,9h15.9l8.7,15.7v-15.7h24.8v77.9l-72.3-109.5h21.1L760.6-242.9L760.6-242.9z" />
		<path
   id="path20"
   class="st1"
   d="M774.6-245.8l4.8-14.3h19.3v14.3H774.6z" />
	</g>
	<g
   id="g22"
   transform="matrix(1 0 0 -1 0 -323.8036)">
		<g
   id="g24">
			<g
   id="g30">
				<g
   id="g32">
					
						<linearGradient
   id="path44_1_"
   gradientUnits="userSpaceOnUse"
   x1="529.0993"
   y1="130.1074"
   x2="891.1851"
   y2="130.1074"
   gradientTransform="matrix(201.7395 0 0 -201.7395 -105948.1719 26159.2266)">
						<stop
   offset="0"
   style="stop-color:#ED3339"
   id="stop1" />
						<stop
   offset="0.5225"
   style="stop-color:#ED3339"
   id="stop2" />
						<stop
   offset="0.8876"
   style="stop-color:#FFFFFF"
   id="stop3" />
						<stop
   offset="1"
   style="stop-color:#FFFFFF"
   id="stop4" />
					</linearGradient>
					<path
   id="path44"
   class="st2"
   d="M953.5-88.2v-0.7l-157.9-0.4l-3.5,1.5L953.5-88.2z" />
				</g>
			</g>
		</g>
	</g>
	<g
   id="g46"
   transform="matrix(1 0 0 -1 0 -323.8036)">
		<g
   id="g48">
			<g
   id="g54">
				<g
   id="g56">
					
						<linearGradient
   id="path68_1_"
   gradientUnits="userSpaceOnUse"
   x1="529.0717"
   y1="130.1331"
   x2="891.1576"
   y2="130.1331"
   gradientTransform="matrix(208.3862 0 0 -208.3862 -109464.5312 27031.627)">
						<stop
   offset="0"
   style="stop-color:#ED3339"
   id="stop5" />
						<stop
   offset="0.5225"
   style="stop-color:#ED3339"
   id="stop6" />
						<stop
   offset="0.8876"
   style="stop-color:#FFFFFF"
   id="stop7" />
						<stop
   offset="1"
   style="stop-color:#FFFFFF"
   id="stop8" />
					</linearGradient>
					<path
   id="path68"
   class="st3"
   d="M953.5-86v-0.7l-163.2-0.4l-3.5,1.5L953.5-86L953.5-86z" />
				</g>
			</g>
		</g>
	</g>
	<g
   id="g70"
   transform="matrix(1 0 0 -1 0 -323.8036)">
		<g
   id="g72">
			<g
   id="g78">
				<g
   id="g80">
					
						<linearGradient
   id="path92_1_"
   gradientUnits="userSpaceOnUse"
   x1="529.0458"
   y1="130.1571"
   x2="891.1317"
   y2="130.1571"
   gradientTransform="matrix(215.0311 0 0 -215.0311 -112979.8984 27903.7852)">
						<stop
   offset="0"
   style="stop-color:#ED3339"
   id="stop9" />
						<stop
   offset="0.5225"
   style="stop-color:#ED3339"
   id="stop10" />
						<stop
   offset="0.8876"
   style="stop-color:#FFFFFF"
   id="stop11" />
						<stop
   offset="1"
   style="stop-color:#FFFFFF"
   id="stop12" />
					</linearGradient>
					<path
   id="path92"
   class="st4"
   d="M953.5-83.7v-0.7L785-84.8l-3.6,1.5L953.5-83.7L953.5-83.7z" />
				</g>
			</g>
		</g>
	</g>
	<g
   id="g94"
   transform="matrix(1 0 0 -1 0 -323.8036)">
		<g
   id="g96">
			<g
   id="g102">
				<g
   id="g104">
					
						<linearGradient
   id="path116_1_"
   gradientUnits="userSpaceOnUse"
   x1="529.0215"
   y1="130.1798"
   x2="891.1074"
   y2="130.1798"
   gradientTransform="matrix(221.6779 0 0 -221.6779 -116496.2656 28776.1875)">
						<stop
   offset="0"
   style="stop-color:#ED3339"
   id="stop13" />
						<stop
   offset="0.5225"
   style="stop-color:#ED3339"
   id="stop14" />
						<stop
   offset="0.8876"
   style="stop-color:#FFFFFF"
   id="stop15" />
						<stop
   offset="1"
   style="stop-color:#FFFFFF"
   id="stop16" />
					</linearGradient>
					<path
   id="path116"
   class="st5"
   d="M953.5-81.5v-0.7l-173.7-0.4l-3.7,1.6L953.5-81.5L953.5-81.5z" />
				</g>
			</g>
		</g>
	</g>
	<g
   id="g118"
   transform="matrix(1 0 0 -1 0 -323.8036)">
		<g
   id="g120">
			<g
   id="g126">
				<g
   id="g128">
					
						<linearGradient
   id="path140_1_"
   gradientUnits="userSpaceOnUse"
   x1="529.012"
   y1="130.1887"
   x2="891.0978"
   y2="130.1887"
   gradientTransform="matrix(224.4086 0 0 -224.4086 -117940.9219 29135.9316)">
						<stop
   offset="0"
   style="stop-color:#ED3339"
   id="stop17" />
						<stop
   offset="0.5225"
   style="stop-color:#ED3339"
   id="stop18" />
						<stop
   offset="0.8876"
   style="stop-color:#FFFFFF"
   id="stop19" />
						<stop
   offset="1"
   style="stop-color:#FFFFFF"
   id="stop20" />
					</linearGradient>
					<path
   id="path140"
   class="st6"
   d="M774.4-78.7l179.1-0.5v-0.7l-178.9-0.5l-0.6,0.2L774.4-78.7z" />
				</g>
			</g>
		</g>
	</g>
	<g
   id="g20">
		<path
   id="path204"
   class="st1"
   d="M811.3-211.3v-20.9h-7.1v36.2h9.5l3-16.7l3.2,16.7h8.8v-36.2h-7.1v20.9l-3.5-20.9h-3.2    L811.3-211.3z" />
		<path
   id="path206"
   class="st1"
   d="M832.1-232.2v36.2h12.5v-5.3h-4.7v-8.6h4.4v-5.4h-4.4V-227h4.7v-5.2H832.1z" />
		<path
   id="path208"
   class="st1"
   d="M858.2-208.5v5.3c0,1-0.1,1.6-0.3,1.8c-0.2,0.2-0.7,0.3-1.4,0.3h-0.8v-10c0.1,0,0.2,0,0.4,0    c0.2,0,0.3,0,0.4,0c0.7,0,1.1,0.1,1.4,0.3c0.2,0.2,0.4,0.6,0.4,1.2V-208.5L858.2-208.5z M847.8-232.2v36.2h9    c3.9,0,6.4-0.4,7.4-1.3s1.6-2.9,1.6-6.2v-3.8c0-2.6-0.3-4.4-0.8-5.3c-0.5-0.9-2.9-1.6-4.2-2c1.3-0.4,3.7-1,4.2-1.9    c0.5-0.9,0.8-2.2,0.8-4v-11.8h-7.6v12.5c0,0.8-0.1,1.3-0.4,1.5s-1,0.4-1.7,0.4h-0.5v-14.4H847.8z" />
		<path
   id="path210"
   class="st1"
   d="M869.8-232.2v36.2h7.8v-36.2H869.8z" />
		<path
   id="path212"
   class="st1"
   d="M880.9-203.2c0,3.4,0.5,5.5,1.5,6.3c1,0.8,4,1.7,8,1.7c4.1,0,6.1-0.9,7.1-1.8s1.5-2.9,1.5-6.2    v-5.1H891v4.8c0,0.7-0.1,1.2-0.3,1.4c-0.2,0.2-0.9,0.4-1.4,0.4c-0.4,0-0.6-0.1-0.8-0.3c-0.1-0.2-0.2-0.7-0.2-1.5v-21.1    c0-0.7,0.1-1.1,0.3-1.4c0.2-0.3,0.5-0.4,0.9-0.4c0.4,0,1,0.1,1.2,0.3c0.2,0.2,0.3,0.5,0.3,0.9v0.6v7.9h7.9v-8.1    c0-3.3-0.5-5.4-1.5-6.3c-1-0.9-3-1.8-7-1.8c-4,0-7,1-8,1.8c-1,0.9-1.5,3-1.5,6.3V-203.2z" />
		<path
   id="path214"
   class="st1"
   d="M909.5-219.2h2.5l-1.2,14L909.5-219.2z M900.1-232.2l6,36.2h9.5l4.2-36.2h-6.7l-0.8,6.4h-4    l-0.6-6.4H900.1z" />
		<path
   id="path216"
   class="st1"
   d="M921.5-232.2v36.2h7.3l3.9-14.9v14.9h6.8v-36.2h-6.3l-5,17.8v-17.8L921.5-232.2L921.5-232.2z" />
		<path
   id="path218"
   class="st1"
   d="M942.7-200v3h-1.2v0.6h3.3v-0.6h-1.2v-3H942.7z" />
		<path
   id="path220"
   class="st1"
   d="M945.3-200v3.6h1.3l0.8-2.8l0.8,2.8h1.3v-3.6h-0.8v2.9l-0.9-2.9H947l-0.9,2.9v-2.9H945.3z" />
		<path
   id="path222"
   class="st1"
   d="M805.9-260.2v10.7h-1.3l0-11.9h8.6v1.3H805.9z" />
		<path
   id="path224"
   class="st1"
   d="M849.9-250.8v1.3h-9.2v-11.9h9.2v1.3h-8v4.1h7.7v1.3h-7.7v4H849.9z" />
		<path
   id="path226"
   class="st1"
   d="M925.7-250.8v1.3h-9.2v-11.9h9.2v1.3h-8v4.1h7.7v1.3h-7.7v4H925.7z" />
		<path
   id="path228"
   class="st1"
   d="M859.8-255.6c-0.1,0-4.4,0-6.6,0v4.8c2.1,0,6.3,0.1,6.6,0.1c0.8,0,1.5-0.5,1.5-1.2v-2.1    C861.2-254.7,860.6-255.6,859.8-255.6L859.8-255.6z M860.7-256.3c1.1,0.3,1.8,1.1,1.8,2v2.5c0,1.2-1.2,2.2-2.7,2.2h-7.9v-11.9h1.3    v4.6h6.7c0.8,0,1.5-1,1.5-1.7v-2.9h1.3v3.1C862.6-257.4,861.8-256.6,860.7-256.3L860.7-256.3z" />
		<path
   id="path230"
   class="st1"
   d="M816.7-257.8l3.2,6.8l3.2-6.8H816.7z M820.7-249.6h-1.5l-5.6-11.9h1.4l1.2,2.5h7.6l1.2-2.5h1.4    L820.7-249.6z" />
		<path
   id="path232"
   class="st1"
   d="M887.2-257.8l3.2,6.8l3.2-6.8H887.2z M891.1-249.6h-1.5l-5.6-11.9h1.4l1.2,2.5h7.6l1.2-2.5h1.4    L891.1-249.6z" />
		<path
   id="path234"
   class="st1"
   d="M838.4-253v1.2c0,1.2-1.2,2.2-2.7,2.2h-0.4h-4.9c-1.5,0-2.7-1-2.7-2.2v-2.3    c0-1.2,1.2-2.2,2.7-2.2h5.3c0.8,0,1.5-0.5,1.5-1.2v-1.6c0-0.7-0.7-1.2-1.5-1.2h-5.3c-0.8,0-1.5,0.5-1.5,1.2v1.3h-1.3v-1.6    c0-1.2,1.2-2.2,2.7-2.2h0.4h4.9c1.5,0,2.7,1,2.7,2.2v2.1c0,1.2-1.2,2.2-2.7,2.2h-5.3c-0.8,0-1.5,0.5-1.5,1.2v1.8    c0,0.7,0.7,1.2,1.5,1.2h5.3c0.8,0,1.5-0.5,1.5-1.2v-1H838.4z" />
		<path
   id="path236"
   class="st1"
   d="M937.4-253v1.2c0,1.2-1.2,2.2-2.7,2.2h-0.4h-4.9c-1.5,0-2.7-1-2.7-2.2v-2.3    c0-1.2,1.2-2.2,2.7-2.2h5.3c0.8,0,1.5-0.5,1.5-1.2v-1.6c0-0.7-0.7-1.2-1.5-1.2h-5.3c-0.8,0-1.5,0.5-1.5,1.2v1.3h-1.3v-1.6    c0-1.2,1.2-2.2,2.7-2.2h0.4h4.9c1.5,0,2.7,1,2.7,2.2v2.1c0,1.2-1.2,2.2-2.7,2.2h-5.3c-0.8,0-1.5,0.5-1.5,1.2v1.8    c0,0.7,0.7,1.2,1.5,1.2h5.3c0.8,0,1.5-0.5,1.5-1.2v-1H937.4z" />
		<path
   id="path238"
   class="st1"
   d="M882.6-253v1.2c0,1.2-1.2,2.2-2.7,2.2h-6.1c-1.5,0-2.7-1-2.7-2.2v-7.6c0-1.2,1.2-2.2,2.7-2.2    h6.1c1.5,0,2.7,1,2.7,2.2v3.7h-6.1v-1.3h4.9v-2.2c0-0.7-0.7-1.2-1.5-1.2h-6.1c-0.8,0-1.5,0.5-1.5,1.2v7c0,0.7,0.7,1.2,1.5,1.2h6.1    c0.8,0,1.5-0.5,1.5-1.2v-1H882.6z" />
		<path
   id="path240"
   class="st1"
   d="M911.3-249.6l-5.7-10.3l-5.7,10.3H898v-11.9h1.3v10.5l5.8-10.5h1l5.8,10.5v-10.5h1.3v11.9H911.3    z" />
		<path
   id="path242"
   class="st1"
   d="M953.7-260.3v-0.7c0-0.3-0.3-0.5-0.6-0.5h-1.7c-0.4,0-0.6,0.2-0.6,0.5v3.1    c0,0.3,0.3,0.5,0.6,0.5h1.7c0.4,0,0.6-0.2,0.6-0.5v-0.4h0.5v0.5c0,0.5-0.5,1-1.2,1h-1.7c-0.7,0-1.2-0.4-1.2-1v-3.3    c0-0.5,0.5-1,1.2-1h1.7c0.7,0,1.2,0.4,1.2,1v0.8H953.7z" />
		<path
   id="path244"
   class="st1"
   d="M943.8-262.1h-0.5v5.2h0.5V-262.1z" />
		<path
   id="path246"
   class="st1"
   d="M948.8-256.9v-4.7l-3,4.7h-1v-5.2h0.5v4.9l3-4.9h0.9v5.2H948.8L948.8-256.9z" />
		<path
   id="path248"
   class="st1"
   d="M939.8-260.2h-1.3v-1.6h0.8c0-0.1,0-0.1,0-0.2v-0.7c0-0.3-0.3-0.5-0.6-0.5h-0.3l-0.3-0.5h0.7    c0.6,0,1.1,0.4,1.1,0.9V-260.2z" />
	</g>
</g>
</svg>
