<?xml version="1.0" encoding="UTF-8" standalone="no"?>
<svg
   viewBox="0 0 165.72531 20.6"
   version="1.1"
   id="svg2"
   sodipodi:docname="auto-favorites.svg"
   width="165.72531"
   height="20.6"
   inkscape:version="1.3.2 (091e20e, 2023-11-25)"
   xmlns:inkscape="http://www.inkscape.org/namespaces/inkscape"
   xmlns:sodipodi="http://sodipodi.sourceforge.net/DTD/sodipodi-0.dtd"
   xmlns="http://www.w3.org/2000/svg"
   xmlns:svg="http://www.w3.org/2000/svg">
  <defs
     id="defs2" />
  <sodipodi:namedview
     id="namedview2"
     pagecolor="#ffffff"
     bordercolor="#000000"
     borderopacity="0.25"
     inkscape:showpageshadow="2"
     inkscape:pageopacity="0.0"
     inkscape:pagecheckerboard="0"
     inkscape:deskcolor="#d1d1d1"
     inkscape:zoom="4.345"
     inkscape:cx="83.084005"
     inkscape:cy="10.356732"
     inkscape:window-width="1376"
     inkscape:window-height="449"
     inkscape:window-x="209"
     inkscape:window-y="25"
     inkscape:window-maximized="0"
     inkscape:current-layer="svg2" />
  <path
     d="m 38.05831,8.75 -0.8,4.459 h -4.801 l -1.185,6.942 h -5.631 l 3.26,-18.702 h 11.557 l -1.57,4.788 h -5.216 l -0.415,2.513 z m 5.986,8.438 -1.155,2.963 h -5.928 l 7.794,-18.702 h 8.713 l 1.304,18.702 h -5.956 l -0.119,-2.963 z m 4.209,-9.994 h -0.297 l -2.075,5.237 h 2.372 z m 15.943,6.134 4.475,-11.879 h 5.956 l -7.616,18.702 h -8.238 l -1.097,-18.702 h 6.253 v 11.879 z m 16.566,-5.625 v 0 l -1.364,7.78 h 2.342 v 0 c 0.77,0 1.343,-0.092 1.719,-0.279 v 0 0 c 0.375,-0.193 0.622,-0.628 0.74,-1.306 v 0 l 1.364,-7.781 h -2.371 v 0 c -0.751,0 -1.314,0.093 -1.69,0.279 v 0 0 c -0.375,0.193 -0.622,0.628 -0.74,1.307 z M 84.17031,1 v 0 0 c 2.509,0 4.297,0.496 5.364,1.486 v 0 0 c 1.066,0.984 1.6,2.504 1.6,4.559 v 0 0 c 0,2.054 -0.323,4.206 -0.968,6.453 v 0 0 c -0.639,2.242 -1.657,3.983 -3.052,5.227 v 0 0 c -1.39,1.25 -3.425,1.875 -6.105,1.875 v 0 0 c -2.674,0 -4.544,-0.491 -5.611,-1.476 v 0 0 c -1.067,-0.991 -1.6,-2.514 -1.6,-4.568 v 0 0 c 0,-0.978 0.138,-2.267 0.414,-3.871 v 0 0 c 0.277,-1.608 0.642,-2.995 1.097,-4.159 v 0 0 c 0.454,-1.171 1.067,-2.184 1.837,-3.042 v 0 0 C 78.62831,1.828 80.96931,1 84.17031,1 Z m 21.278,12.927 1.955,6.224 h -6.193 l -1.363,-5.565 h -1.216 l -0.948,5.565 h -5.63 l 3.26,-18.702 h 8.89 v 0 c 3.378,0 5.067,1.526 5.067,4.579 v 0 0 c 0,1.256 -0.187,2.453 -0.563,3.59 v 0 0 c -0.691,2.155 -1.778,3.591 -3.259,4.309 z m -4.238,-7.69 h -1.126 l -0.652,3.74 h 1.303 v 0 c 0.673,0 1.179,-0.073 1.522,-0.219 v 0 0 c 0.348,-0.153 0.586,-0.582 0.711,-1.287 v 0 0 c 0.132,-0.711 0.198,-1.147 0.198,-1.307 v 0 0 c 0,-0.399 -0.152,-0.655 -0.454,-0.768 v 0 0 c -0.31,-0.106 -0.811,-0.159 -1.502,-0.159 z m 13.987,13.914 h -5.63 l 3.26,-18.702 h 5.63 z m 19.204,-18.702 -0.859,4.788 h -4.09 l -2.401,13.914 h -5.63 l 2.4,-13.914 h -4.06 l 0.86,-4.788 z m 12.358,7.301 -0.771,4.339 h -5.631 l -0.385,2.274 h 6.905 l -0.83,4.788 h -12.535 l 3.26,-18.702 h 12.387 l -1.541,4.788 h -6.075 l -0.415,2.513 z m 1.926,11.072 v 0 l 1.66,-4.937 v 0 c 1.659,0.458 3.18,0.687 4.563,0.687 v 0 0 c 1.383,0 2.5,-0.059 3.349,-0.178 v 0 l 0.237,-1.496 -2.459,-0.24 v 0 c -1.877,-0.18 -3.208,-0.609 -3.991,-1.287 v 0 0 c -0.778,-0.678 -1.166,-1.635 -1.166,-2.873 v 0 0 c 0,-0.539 0.059,-1.137 0.178,-1.795 v 0 0 c 0.454,-2.554 1.277,-4.309 2.469,-5.267 v 0 0 c 1.199,-0.957 3.053,-1.436 5.562,-1.436 v 0 0 c 2.509,0 4.721,0.25 6.638,0.748 v 0 l -1.541,4.788 v 0 c -1.719,-0.299 -3.102,-0.449 -4.149,-0.449 v 0 0 c -1.047,0 -1.936,0.05 -2.667,0.15 v 0 l -0.237,1.466 1.986,0.21 v 0 c 2.014,0.219 3.447,0.705 4.296,1.455 v 0 0 c 0.85,0.746 1.275,1.746 1.275,3.003 v 0 0 c 0,1.277 -0.277,2.593 -0.83,3.95 v 0 0 c -0.277,0.698 -0.58,1.284 -0.909,1.756 v 0 0 c -0.323,0.465 -0.738,0.861 -1.245,1.187 v 0 0 c -0.5,0.332 -0.958,0.581 -1.373,0.747 v 0 0 c -0.415,0.173 -0.938,0.3 -1.57,0.38 v 0 0 c -0.929,0.139 -2.065,0.209 -3.408,0.209 v 0 0 c -2.45,0 -4.673,-0.26 -6.668,-0.778 z"
     style="white-space:pre;fill:#ffffff"
     id="path1" />
  <path
     d="m 10.38331,0 c -0.216,0 -0.4320001,0.169 -0.5950001,0.506 l -2.217,4.533 c -0.329,0.675 -1.202,1.312 -1.937,1.42 L 0.68230987,7.186 c -0.737,0.108 -0.903,0.626 -0.37,1.15 l 3.58500003,3.528 c 0.533,0.526 0.866,1.56 0.74,2.299 l -0.848,4.985 c -0.092,0.536 0.112,0.852 0.483,0.852 0.17,-0.007 0.337,-0.055 0.486,-0.141 l 4.431,-2.355 c 0.331,-0.174 0.763,-0.259 1.1950001,-0.259 0.435,0 0.871,0.086 1.197,0.259 l 4.433,2.355 c 0.178,0.095 0.346,0.141 0.485,0.141 0.372,0 0.574,-0.316 0.484,-0.852 l -0.849,-4.985 c -0.124,-0.739 0.209,-1.774 0.739,-2.299 l 3.587,-3.528 c 0.532,-0.524 0.367,-1.042 -0.371,-1.15 l -4.954,-0.725 c -0.735,-0.109 -1.607,-0.746 -1.936,-1.421 l -2.215,-4.534 C 10.81731,0.169 10.60331,0 10.38331,0 Z"
     style="fill:#ffffff"
     id="path2" />
</svg>
