<?xml version="1.0" encoding="UTF-8" standalone="no"?>
<svg
   viewBox="0 0 188.2765 20"
   version="1.1"
   id="svg1"
   sodipodi:docname="auto-lastplayed.svg"
   width="188.2765"
   height="20"
   inkscape:version="1.3.2 (091e20e, 2023-11-25)"
   xmlns:inkscape="http://www.inkscape.org/namespaces/inkscape"
   xmlns:sodipodi="http://sodipodi.sourceforge.net/DTD/sodipodi-0.dtd"
   xmlns="http://www.w3.org/2000/svg"
   xmlns:svg="http://www.w3.org/2000/svg">
  <defs
     id="defs1" />
  <sodipodi:namedview
     id="namedview1"
     pagecolor="#ffffff"
     bordercolor="#000000"
     borderopacity="0.25"
     inkscape:showpageshadow="2"
     inkscape:pageopacity="0.0"
     inkscape:pagecheckerboard="0"
     inkscape:deskcolor="#d1d1d1"
     inkscape:zoom="4.345"
     inkscape:cx="94.361335"
     inkscape:cy="10.126582"
     inkscape:window-width="1376"
     inkscape:window-height="449"
     inkscape:window-x="209"
     inkscape:window-y="25"
     inkscape:window-maximized="0"
     inkscape:current-layer="svg1" />
  <g
     id="Group"
     transform="matrix(1.66729,0,0,1.663529,-0.51026769,-0.13784212)"
     fill-rule="nonzero"
     fill="#bba358">
    <path
       d="m 7.3876895,0.08286127 c -2.909283,0 -5.3366595,2.06915443 -5.891297,4.81653003 H 0.4304794 c -0.0471282,6.9e-6 -0.0902095,0.026635 -0.11128935,0.068786 -0.0210798,0.042151 -0.0165414,0.092593 0.0117238,0.1303047 l 1.60551005,2.14068 c 0.023503,0.031341 0.060391,0.049787 0.099565,0.049787 0.039175,0 0.076063,-0.018446 0.099566,-0.049787 l 1.60551,-2.14068 C 3.7693299,5.060771 3.7738689,5.010328 3.7527889,4.9681773 3.7317089,4.9260263 3.6886279,4.8993983 3.6414996,4.8993913 H 2.853296 c 0.5290406,-2.011631 2.3553128,-3.4972966 4.5343935,-3.4972966 2.5931032,0 4.6920835,2.0989803 4.6920835,4.6920834 0,2.5931031 -2.0989803,4.6920839 -4.6920835,4.6920839 -1.6264633,0 -3.0582109,-0.8268351 -3.9002317,-2.0828023 -0.023104,-0.034478 -0.061874,-0.05517 -0.1033776,-0.055173 H 2.144081 c -0.043331,1.22e-5 -0.083536,0.022562 -0.1061401,0.05953 -0.022604,0.036968 -0.024352,0.083032 -0.00462,0.1216067 0.9957502,1.9450356 3.0202998,3.2760716 5.3543644,3.2760716 3.3184027,0 6.0113167,-2.6929142 6.0113167,-6.0113167 0,-3.318423 -2.692914,-6.01131683 -6.0113167,-6.01131683 z"
       id="path4921"
       style="fill:#ffffff" />
    <path
       d="m 6.9881859,2.6889048 c -0.09936,10e-8 -0.1799066,0.080547 -0.1799068,0.1799067 v 3.9163819 c 6.6e-6,0.0637 0.033698,0.1226482 0.08858,0.1549846 L 9.6856376,8.583645 C 9.7712046,8.63406 9.8814369,8.605602 9.9319075,8.520069 L 10.203797,8.0592966 c 0.05035,-0.085363 0.02218,-0.1953668 -0.063,-0.2460242 L 7.7032626,6.3638946 V 2.8688115 c -1e-7,-0.09936 -0.080547,-0.1799066 -0.1799067,-0.1799067 z"
       id="polygon4923"
       style="fill:#ffffff" />
  </g>
  <path
     d="m 40.0235,14.363001 -0.832,4.788 h -11.29 l 3.268,-18.70200012 h 5.645 L 34.3785,14.363001 Z m 4.426,1.826 -1.158,2.962 h -5.942 l 7.814,-18.70200012 h 8.735 l 1.307,18.70200012 h -5.972 l -0.119,-2.962 z m 4.22,-9.9950001 h -0.297 l -2.08,5.2360001 h 2.377 z m 7.962,12.6280001 v 0 l 1.663,-4.937 v 0 c 1.665,0.458 3.189,0.688 4.576,0.688 v 0 0 c 1.386,0 2.505,-0.06 3.357,-0.18 v 0 l 0.238,-1.496 -2.466,-0.239 v 0 c -1.882,-0.18 -3.215,-0.609 -4.001,-1.287 v 0 0 c -0.78,-0.678 -1.169,-1.6360001 -1.169,-2.8730001 v 0 0 c 0,-0.538 0.059,-1.137 0.178,-1.795 v 0 0 c 0.456,-2.554 1.281,-4.309 2.476,-5.267 v 0 0 C 62.6845,0.47900088 64.5435,8.7870334e-7 67.0595,8.7870334e-7 v 0 0 c 2.516,0 4.734,0.25000000129666 6.655,0.74800000129666 v 0 l -1.545,4.78800002 v 0 c -1.723,-0.299 -3.109,-0.449 -4.16,-0.449 v 0 0 c -1.049,0 -1.94,0.05 -2.673,0.15 v 0 l -0.238,1.466 1.991,0.209 v 0 c 2.02,0.22 3.456,0.705 4.307,1.457 v 0 0 c 0.853,0.745 1.278,1.7450001 1.278,3.0020001 v 0 0 c 0,1.277 -0.277,2.593 -0.832,3.95 v 0 0 c -0.277,0.698 -0.581,1.283 -0.911,1.755 v 0 0 c -0.324,0.466 -0.739,0.862 -1.247,1.187 v 0 0 c -0.503,0.332 -0.961,0.582 -1.378,0.748 v 0 0 c -0.415,0.173 -0.94,0.3 -1.574,0.38 v 0 0 c -0.931,0.139 -2.07,0.209 -3.416,0.209 v 0 0 c -2.456,0 -4.685,-0.259 -6.685,-0.778 z M 89.9955,0.44900088 89.1335,5.2370009 h -4.099 l -2.407,13.9140001 h -5.645 l 2.407,-13.9140001 h -4.07 l 0.861,-4.78800002 z m 15.153,14.18400012 v 0 h -3.685 l -0.772,4.518 h -5.645 l 3.268,-18.70200012 h 8.913 v 0 c 3.367,0 5.051,1.57600002 5.051,4.72800002 v 0 0 c 0,1.496 -0.208,2.845 -0.624,4.049 v 0 0 c -0.416,1.2110001 -0.874,2.1720001 -1.377,2.8830001 v 0 0 c -0.508,0.705 -1.205,1.303 -2.089,1.796 v 0 0 c -0.879,0.485 -1.892,0.728 -3.04,0.728 z m -0.744,-9.3960001 h -1.307 l -0.802,4.608 h 1.307 v 0 c 0.674,0 1.182,-0.073 1.526,-0.22 v 0 0 c 0.349,-0.152 0.574,-0.498 0.673,-1.037 v 0 0 c 0.258,-1.476 0.386,-2.284 0.386,-2.424 v 0 0 c 0,-0.379 -0.148,-0.628 -0.445,-0.748 v 0 0 c -0.297,-0.12 -0.743,-0.179 -1.338,-0.179 z m 19.788,9.1260001 -0.832,4.788 h -11.29 l 3.268,-18.70200012 h 5.645 l -2.436,13.91400012 z m 4.426,1.826 -1.158,2.962 h -5.942 l 7.814,-18.70200012 h 8.734 l 1.307,18.70200012 h -5.971 l -0.119,-2.962 z m 4.219,-9.9950001 h -0.297 l -2.08,5.2360001 h 2.377 z m 7.814,-5.74500002 h 6.239 l 0.386,6.58300002 h 0.209 l 2.733,-6.58300002 h 6.239 l -7.487,13.61500012 -0.862,5.087 h -5.645 l 0.862,-5.087 z m 26.917,7.30100002 -0.772,4.3390001 h -5.645 l -0.386,2.274 h 6.922 l -0.832,4.788 h -12.567 l 3.268,-18.70200012 h 12.419 l -1.545,4.78800002 h -6.091 l -0.416,2.513 z m 10.369,11.4010001 h -7.903 l 3.268,-18.70200012 h 7.903 v 0 c 2.556,0 4.37,0.456 5.447,1.36600002 v 0 0 c 1.083,0.905 1.624,2.374 1.624,4.409 v 0 0 c 0,1.037 -0.119,2.234 -0.356,3.591 v 0 0 c -0.594,3.3510001 -1.612,5.7450001 -3.051,7.1820001 v 0 0 c -1.433,1.436 -3.743,2.154 -6.932,2.154 z m 2.496,-13.9140001 v 0 h -2.347 l -1.575,9.1260001 h 2.347 v 0 c 0.772,0 1.347,-0.092 1.723,-0.279 v 0 0 c 0.377,-0.192 0.624,-0.628 0.743,-1.307 v 0 l 1.04,-5.9540001 v 0 c 0.019,-0.12 0.029,-0.28 0.029,-0.479 v 0 0 c 0,-0.459 -0.158,-0.758 -0.475,-0.898 v 0 0 c -0.317,-0.14 -0.812,-0.209 -1.485,-0.209 z"
     style="white-space:pre;fill:#ffffff"
     id="path1" />
</svg>
