<?xml version="1.0" encoding="UTF-8" standalone="no"?>
<!-- Generator: Adobe Illustrator 25.0.1, SVG Export Plug-In . SVG Version: 6.00 Build 0)  -->

<svg
   version="1.0"
   id="svg2"
   x="0px"
   y="0px"
   viewBox="0 0 1500 758.99999"
   xml:space="preserve"
   sodipodi:docname="doom.svg"
   width="1500"
   height="759"
   inkscape:version="1.3.2 (091e20e, 2023-11-25)"
   xmlns:inkscape="http://www.inkscape.org/namespaces/inkscape"
   xmlns:sodipodi="http://sodipodi.sourceforge.net/DTD/sodipodi-0.dtd"
   xmlns="http://www.w3.org/2000/svg"
   xmlns:svg="http://www.w3.org/2000/svg"><defs
   id="defs1" /><sodipodi:namedview
   id="namedview1"
   pagecolor="#ffffff"
   bordercolor="#000000"
   borderopacity="0.25"
   inkscape:showpageshadow="2"
   inkscape:pageopacity="0.0"
   inkscape:pagecheckerboard="0"
   inkscape:deskcolor="#d1d1d1"
   inkscape:zoom="0.27991118"
   inkscape:cx="875.27765"
   inkscape:cy="1052.1195"
   inkscape:window-width="1376"
   inkscape:window-height="820"
   inkscape:window-x="209"
   inkscape:window-y="25"
   inkscape:window-maximized="0"
   inkscape:current-layer="svg2" />
<g
   id="layer1"
   transform="matrix(0.82773097,0,0,0.79864788,-177.05647,-736.2506)"
   style="fill:#ffffff;fill-opacity:1">
	<path
   id="path3347"
   d="m 1753.6,1725.1 -0.3,-292.5 -46.8,163.4 -46.7,-162.7 -0.3,222 -152.5,-114.4 11.6,-8.7 -0.5,-569.3 144.9,0.4 43.4,152.2 43.5,-152.4 214.4,0.7 -70.4,52.6 0.1,814.6 z m -1397.9,-708.7 -71.2,-53.3 401.3,0.5 45.9,35.1 v 533.5 l 12.2,8.8 -388.1,291.3 z m 235.5,416.2 -0.2,-307.9 -10.8,-8.8 -83.4,0.4 -0.2,387.2 z m 152.4,82.8 -0.1,-516.8 47.1,-35.3 h 281.7 l 47,35.4 0.2,598 -133.2,100.2 z m 223.1,-399.8 -71,0.5 -11.1,8.5 0.2,308.1 93.3,70 0.2,-377.9 z m 164.8,481.7 -0.3,-598.8 46.9,-35.2 282.1,0.3 47.2,35.3 -0.3,515.6 -241.3,182.5 z m 234.7,-164.7 v -308 l -11.9,-9.1 -70.9,0.2 -11.4,8.8 0.7,377.3 z"
   style="fill:#ffffff;fill-opacity:1" />
</g>
</svg>
