<?xml version="1.0" encoding="UTF-8" standalone="no"?>
<svg
   role="img"
   viewBox="0 0 34 28"
   version="1.1"
   id="svg1"
   sodipodi:docname="retroarch.svg"
   inkscape:version="1.3.2 (091e20e, 2023-11-25)"
   width="34"
   height="28"
   xmlns:inkscape="http://www.inkscape.org/namespaces/inkscape"
   xmlns:sodipodi="http://sodipodi.sourceforge.net/DTD/sodipodi-0.dtd"
   xmlns="http://www.w3.org/2000/svg"
   xmlns:svg="http://www.w3.org/2000/svg"
   xmlns:rdf="http://www.w3.org/1999/02/22-rdf-syntax-ns#"
   xmlns:cc="http://creativecommons.org/ns#"
   xmlns:dc="http://purl.org/dc/elements/1.1/">
  <defs
     id="defs1" />
  <sodipodi:namedview
     id="namedview1"
     pagecolor="#ffffff"
     bordercolor="#000000"
     borderopacity="0.25"
     inkscape:showpageshadow="2"
     inkscape:pageopacity="0.0"
     inkscape:pagecheckerboard="0"
     inkscape:deskcolor="#d1d1d1"
     inkscape:zoom="9.8333333"
     inkscape:cx="30"
     inkscape:cy="16.881356"
     inkscape:window-width="1376"
     inkscape:window-height="861"
     inkscape:window-x="209"
     inkscape:window-y="25"
     inkscape:window-maximized="0"
     inkscape:current-layer="layer1" />
  <title
     id="title1">RetroArch icon</title>
  <metadata
     id="metadata1">
    <rdf:RDF>
      <cc:Work
         rdf:about="">
        <dc:title>RetroArch icon</dc:title>
      </cc:Work>
    </rdf:RDF>
  </metadata>
  <g
     inkscape:groupmode="layer"
     id="layer1"
     inkscape:label="Layer 1"
     style="display:inline">
    <path
       id="text1"
       style="font-style:italic;font-stretch:condensed;font-size:5.33333px;font-family:'Futura XBlkCnIt BT';-inkscape-font-specification:'Futura XBlkCnIt BT, Italic Condensed';fill:#ffffff;fill-opacity:1;stroke-width:2.15849;stroke-linecap:square;stroke-opacity:0.988722;paint-order:markers fill stroke"
       d="M 11.204984,0.16614809 12.546937,1.8729327 H 9.863031 L 9.245027,4.4339001 H 7.5932693 L 8.212879,1.8729327 H 6.5611211 L 5.3219015,6.9948678 H 8.625417 l -0.412538,1.706785 h 2.889372 L 8.935222,11.262621 h 2.425467 l 2.01293,-2.5609682 h 4.54113 l 2.012929,2.5609682 h 2.425468 l -2.16703,-2.5609682 h 2.889372 L 22.66295,6.9948678 h 3.303516 l -1.23922,-5.1219351 h -1.651758 l 0.61961,2.5609674 H 22.043341 L 21.42373,1.8729327 H 18.741431 L 20.083383,0.16614809 H 18.327287 L 16.882601,1.8729327 H 14.405767 L 12.96108,0.16614809 Z m 0.207072,3.41515101 h 1.651758 v 1.706785 h -1.651758 z m 6.817313,0 h 1.651758 v 1.706785 h -1.651758 z m -2.476834,8.5513239 c -0.211173,0 -0.399519,0.04253 -0.565033,0.129709 -0.164088,0.08718 -0.309449,0.219873 -0.435011,0.397036 -0.128416,0.182788 -0.230971,0.408638 -0.306594,0.678602 -0.0742,0.269964 -0.11076,0.548189 -0.11076,0.83362 0,0.350109 0.08989,0.630619 0.269675,0.841528 0.179783,0.21091 0.417354,0.316364 0.712712,0.316364 0.2126,0 0.401123,-0.04411 0.566638,-0.131291 0.166942,-0.08858 0.312124,-0.219698 0.433406,-0.395455 0.129843,-0.187006 0.230793,-0.414614 0.304989,-0.681765 0.0742,-0.267152 0.112364,-0.54362 0.112364,-0.830456 0,-0.357139 -0.08953,-0.639583 -0.266464,-0.846274 -0.176929,-0.208097 -0.414857,-0.311618 -0.715922,-0.311618 z m 7.226641,0 c -0.466579,0 -0.841129,0.183667 -1.123645,0.552055 -0.282515,0.366982 -0.423774,0.852075 -0.423774,1.455275 0,0.385261 0.09382,0.678601 0.279306,0.881074 0.186917,0.202473 0.456592,0.30371 0.809024,0.30371 0.08989,0 0.16926,-0.0046 0.239175,-0.01582 0.06992,-0.01125 0.134303,-0.02988 0.194231,-0.05378 l 0.133232,-0.741873 c -0.04851,0.01547 -0.09542,0.02794 -0.139653,0.03638 -0.0428,0.007 -0.08169,0.0095 -0.118785,0.0095 -0.1541,0 -0.269497,-0.04869 -0.34512,-0.14711 -0.0742,-0.09842 -0.110759,-0.250103 -0.110759,-0.453982 0,-0.31777 0.06207,-0.571214 0.186204,-0.762438 0.124135,-0.19263 0.287154,-0.289473 0.491193,-0.289473 0.04709,0 0.09399,0.0062 0.139653,0.0174 0.04566,0.01125 0.09471,0.03023 0.146074,0.05695 l 0.136443,-0.762439 c -0.0799,-0.02812 -0.161057,-0.04921 -0.242387,-0.06327 -0.08133,-0.01547 -0.164801,-0.02215 -0.250412,-0.02215 z M 6.08598,12.189573 5.5899711,15.267797 h 0.8732324 l 0.1974405,-1.243312 0.1958353,1.243312 h 0.924599 l -0.38525,-1.347717 c 0.20832,-0.05202 0.368485,-0.157831 0.478352,-0.319528 0.111294,-0.161697 0.1669417,-0.368389 0.1669417,-0.620073 0,-0.288243 -0.08775,-0.49265 -0.2632537,-0.612166 -0.174076,-0.119515 -0.4928,-0.178745 -0.955098,-0.178745 z m 2.359654,0 -0.4976137,3.078224 H 9.495439 L 9.623856,14.473722 H 8.948063 l 0.07063,-0.423928 h 0.609979 l 0.11397,-0.72131 H 9.132663 l 0.06581,-0.392292 H 9.87266 l 0.12039,-0.746619 z m 1.71115,0 -0.125206,0.779838 h 0.520087 l -0.369198,2.298386 h 0.878049 l 0.367592,-2.298386 h 0.518482 l 0.126811,-0.779838 z m 2.202344,0 -0.496009,3.078224 h 0.873232 l 0.197441,-1.243312 0.195835,1.243312 h 0.924599 l -0.38525,-1.347712 c 0.20832,-0.05202 0.368485,-0.157831 0.478352,-0.319528 0.111294,-0.161697 0.166942,-0.368389 0.166942,-0.620073 0,-0.288243 -0.08775,-0.49265 -0.263254,-0.612166 -0.174076,-0.119515 -0.492799,-0.178745 -0.955098,-0.178745 z m 5.255447,0 -1.175012,3.078224 h 0.894101 l 0.136442,-0.452401 h 0.516877 l -0.0048,0.452401 h 0.881259 l -0.219913,-3.078224 z m 1.845988,0 -0.496009,3.078224 h 0.873232 l 0.197441,-1.243312 0.195835,1.243312 h 0.9246 l -0.38525,-1.347712 c 0.208319,-0.05202 0.368483,-0.157831 0.478351,-0.319528 0.111294,-0.161697 0.166942,-0.368389 0.166942,-0.620073 0,-0.288243 -0.08775,-0.49265 -0.263255,-0.612166 -0.174075,-0.119515 -0.492798,-0.178745 -0.955097,-0.178745 z m 4.261823,0 -0.496008,3.078224 h 0.873233 l 0.192624,-1.203767 h 0.354751 l -0.192625,1.203767 h 0.871627 l 0.496009,-3.078224 h -0.873232 l -0.174968,1.113602 h -0.359566 l 0.179783,-1.113602 z m -16.8033037,0.63431 c 0.0956,0 0.166228,0.02109 0.211887,0.06327 0.04566,0.04218 0.06902,0.107564 0.06902,0.196146 0,0.154667 -0.03621,0.272952 -0.107549,0.355909 -0.07134,0.08155 -0.173897,0.123383 -0.3065941,0.123383 h -0.046547 l 0.1171801,-0.733965 c 0.0086,0 0.01926,-0.0018 0.0321,-0.0032 0.01427,-0.0014 0.02479,-0.0016 0.0305,-0.0016 z m 6.2731477,0 c 0.0956,0 0.166228,0.02109 0.211887,0.06327 0.04566,0.04218 0.06902,0.107564 0.06902,0.196146 0,0.154667 -0.03621,0.272952 -0.107548,0.355909 -0.07134,0.08155 -0.173898,0.123383 -0.306595,0.123383 h -0.04655 l 0.11718,-0.733965 c 0.0086,0 0.01926,-0.0018 0.0321,-0.0032 0.01427,-0.0014 0.02479,-0.0016 0.0305,-0.0016 z m 7.101435,0 c 0.0956,0 0.166228,0.02109 0.211887,0.06327 0.04566,0.04218 0.06902,0.107564 0.06902,0.196146 0,0.154667 -0.03621,0.272952 -0.107548,0.355909 -0.07134,0.08155 -0.173898,0.123383 -0.306595,0.123383 h -0.04655 l 0.11718,-0.733965 c 0.0086,0 0.01926,-0.0018 0.0321,-0.0032 0.01427,-0.0014 0.02479,-0.0016 0.0305,-0.0016 z m -4.629416,0.06486 c 0.06278,0 0.109689,0.02742 0.139653,0.08225 0.02996,0.05343 0.04495,0.137795 0.04495,0.253092 0,0.174351 -0.01498,0.359601 -0.04495,0.553637 -0.02854,0.192631 -0.06688,0.35714 -0.11397,0.493528 -0.03567,0.105455 -0.07634,0.181558 -0.121996,0.229364 -0.04423,0.04781 -0.09756,0.07118 -0.158915,0.07118 -0.06849,0 -0.117894,-0.02548 -0.149285,-0.07751 -0.03139,-0.05343 -0.04655,-0.137795 -0.04655,-0.253092 0,-0.170133 0.01498,-0.353449 0.04495,-0.548891 0.03139,-0.195443 0.0701,-0.364171 0.11718,-0.506183 0.03282,-0.104048 0.07152,-0.178218 0.11718,-0.224619 0.04709,-0.0478 0.104696,-0.07276 0.171758,-0.07276 z m 2.350023,0.162927 -0.01124,1.140493 h -0.34833 z" />
  </g>
</svg>
