<?xml version="1.0" encoding="UTF-8" standalone="no"?>
<!-- Created with Inkscape (http://www.inkscape.org/) -->

<svg
   width="113mm"
   height="25mm"
   viewBox="0 0 113 25"
   version="1.1"
   id="svg1"
   inkscape:version="1.3.2 (091e20e, 2023-11-25)"
   sodipodi:docname="retropie.svg"
   xml:space="preserve"
   xmlns:inkscape="http://www.inkscape.org/namespaces/inkscape"
   xmlns:sodipodi="http://sodipodi.sourceforge.net/DTD/sodipodi-0.dtd"
   xmlns="http://www.w3.org/2000/svg"
   xmlns:svg="http://www.w3.org/2000/svg"><sodipodi:namedview
     id="namedview1"
     pagecolor="#ffffff"
     bordercolor="#000000"
     borderopacity="0.25"
     inkscape:showpageshadow="2"
     inkscape:pageopacity="0.0"
     inkscape:pagecheckerboard="0"
     inkscape:deskcolor="#d1d1d1"
     inkscape:document-units="mm"
     inkscape:zoom="1.1417287"
     inkscape:cx="197.06958"
     inkscape:cy="37.224255"
     inkscape:window-width="1376"
     inkscape:window-height="704"
     inkscape:window-x="209"
     inkscape:window-y="25"
     inkscape:window-maximized="0"
     inkscape:current-layer="layer1" /><defs
     id="defs1"><rect
       x="105.16113"
       y="8.7634277"
       width="283.05869"
       height="81.49987"
       id="rect2" /><rect
       x="113.92456"
       y="14.897826"
       width="292.69846"
       height="77.118156"
       id="rect1" /></defs><g
     inkscape:label="Capa 1"
     inkscape:groupmode="layer"
     id="layer1"><path
       id="path2"
       style="fill:#ffffff;fill-opacity:1;stroke-width:0.585826"
       inkscape:label="path2"
       d="M 24.099451,2.9644732 23.708385,2.265114 22.695647,2.3024934 C 22.501052,2.1112477 22.276691,1.9447371 22.025029,1.8049646 l 6.93e-4,-0.00152 0.05372,-0.7533499 -0.944721,-0.29064492 -0.682159,0.56059742 v 0.00101 c -0.3122,-0.03223 -0.632548,-0.0349 -0.950839,-0.00101 L 18.818869,0.75944715 17.874149,1.0490812 17.927099,1.802431 C 17.66999,1.9462237 17.445552,2.1147748 17.25579,2.3014817 l -6.69e-4,-5.149e-4 -1.018163,-0.038905 -0.389728,0.6993592 0.754959,0.5045862 0.002,0.00101 c -0.03599,0.216477 -0.0509,0.4697804 -0.0052,0.7059388 l -0.76244,0.5071028 0.39176,0.6998746 1.02225,-0.041384 c 0.193821,0.1912452 0.424405,0.3567447 0.676066,0.4965185 v 0.00154 l -0.05167,0.7533502 1.035846,0.2896335 0.772644,-0.5605984 V 6.318026 c 0.199995,0.02727 0.541396,0.033758 0.860355,9.682e-4 l 0.637303,0.5605984 0.921584,-0.2896335 -0.06401,-0.7533502 c 0.257782,-0.1432251 0.477467,-0.3128438 0.665864,-0.499055 l -6.93e-4,5.147e-4 1.015437,0.038908 0.391091,-0.7003699 -0.75699,-0.5040893 -0.0026,-0.00101 c 0.04499,-0.2311045 0.04216,-0.466748 -0.002,-0.7028873 z M 20.628706,4.9858665 C 19.759484,5.2517952 18.763763,4.9465803 18.403313,4.3021458 18.042145,3.6582836 18.455754,2.9205713 19.3249,2.6536511 c 0.869888,-0.2669394 1.866278,0.038905 2.226754,0.6827101 0.359804,0.6448547 -0.05372,1.3825851 -0.922948,1.6495053 z M 18.785618,13.890433 V 12.109071 L 16.842341,11.515736 C 16.673182,10.971223 16.447677,10.459234 16.111603,9.9859451 l 0.01846,-0.00202 0.923614,-1.601655 -1.508722,-1.2592516 -1.923715,0.7628711 -0.0025,0.00202 C 13.051623,7.6085291 12.435605,7.4315356 11.782156,7.2904997 L 11.069267,5.6582953 H 8.927427 L 8.2145878,7.290499 C 7.5595084,7.4314582 6.9434885,7.6281852 6.3762806,7.9075662 L 6.3731306,7.8947572 4.4477853,7.127144 2.934174,8.3843456 l 0.9171224,1.6009876 0.00247,0.00202 C 3.5176993,10.459313 3.1848543,10.972633 3.0164014,11.517146 l -2.08158792,0.592003 v 1.781363 l 2.08158792,0.593337 c 0.1685459,0.54382 0.4662969,1.057832 0.8015727,1.529097 l 0.015382,0.002 -0.9065109,1.602347 1.5176396,1.259226 1.9286369,-0.762179 0.00315,-0.0013 c 0.5663772,0.278021 1.1840271,0.539079 1.8374756,0.679447 l 0.7144692,1.716266 h 2.1418405 l 0.71284,-1.716266 c 0.654279,-0.140446 1.271098,-0.379052 1.837474,-0.658433 l 0.0032,-0.0076 1.926177,0.756078 1.51278,-1.261942 -0.917092,-1.603678 -0.0017,-0.002 c 0.335277,-0.472623 0.528118,-0.986636 0.69737,-1.530457 z m -8.78699,2.077687 c -1.9701266,0 -3.5683493,-1.329064 -3.5683493,-2.968034 0,-1.638969 1.5982227,-2.968725 3.5683493,-2.968725 1.972556,0 3.569149,1.329756 3.569149,2.968725 0,1.63897 -1.596593,2.968034 -3.569149,2.968034 z M 34.56738,12.941706 q 0,0.723116 0.226566,1.058217 0.226568,0.326283 0.720895,0.326283 0.442836,0 0.762091,-0.299828 0.329551,-0.299828 0.587012,-0.961214 0.339851,-0.855393 0.54582,-2.063525 0.216271,-1.2169517 0.216271,-2.3104416 0,-0.723117 -0.216271,-1.0582191 -0.216267,-0.3439205 -0.669401,-0.3439205 -0.484029,0 -0.82388,0.2998278 -0.329553,0.29101 -0.566418,0.9435775 -0.339851,0.8906676 -0.566418,2.1164369 -0.216267,1.225768 -0.216267,2.292806 z m 0.504626,4.550336 q -2.13179,0 -3.429402,-1.322772 -1.29761,-1.322773 -1.29761,-3.518575 0,-1.790152 0.535521,-3.4833002 0.545821,-1.6931492 1.472688,-2.8395523 0.906266,-1.1111288 2.090593,-1.6578748 1.194628,-0.5467459 2.718806,-0.5467459 2.172984,0 3.449997,1.3051355 1.277014,1.2963166 1.277014,3.5362128 0,1.7989699 -0.535521,3.4744809 -0.535523,1.675512 -1.472686,2.848371 -0.875373,1.10231 -2.080298,1.657875 -1.194625,0.546745 -2.729102,0.546745 z M 47.831848,7.2096907 47.306624,10.05806 q 0.08239,0.01763 0.175075,0.02646 0.09269,0 0.226568,0 0.89597,0 1.338804,-0.4585616 0.453134,-0.4585605 0.453134,-1.3845011 0,-0.5114723 -0.370745,-0.7672081 -0.370747,-0.264557 -1.081343,-0.264557 z M 41.77633,17.236307 44.165582,4.3613208 h 3.604475 q 3.017461,0 4.356265,0.8553929 1.338807,0.8465738 1.338807,2.7513667 0,2.4074476 -1.596268,3.7037636 -1.585968,1.287498 -4.541639,1.287498 -0.09269,0 -0.288358,-0.0088 -0.185373,-0.0088 -0.27806,-0.0088 l -0.782686,4.294601 z m 17.383871,0 h -4.222385 l 1.771341,-9.6121472 h -2.502535 l 0.607611,-3.262839 h 9.217158 l -0.60761,3.262839 h -2.492238 z m 3.995817,0 2.378953,-12.8749862 h 4.20179 L 67.347509,17.236307 Z m 10.813424,-4.294601 q 0,0.723116 0.226567,1.058217 0.226567,0.326283 0.720895,0.326283 0.442836,0 0.762089,-0.299828 0.329551,-0.299828 0.587015,-0.961214 0.339851,-0.855393 0.545821,-2.063525 0.216268,-1.2169517 0.216268,-2.3104416 0,-0.723117 -0.216268,-1.0582191 -0.216269,-0.3439205 -0.669403,-0.3439205 -0.48403,0 -0.82388,0.2998278 -0.329553,0.29101 -0.566418,0.9435775 -0.339852,0.8906676 -0.566417,2.1164369 -0.216269,1.225768 -0.216269,2.292806 z m 0.504626,4.550336 q -2.131789,0 -3.429399,-1.322772 -1.297613,-1.322773 -1.297613,-3.518575 0,-1.790152 0.535522,-3.4833002 0.545822,-1.6931492 1.472686,-2.8395523 0.906268,-1.1111288 2.090596,-1.6578748 1.194626,-0.5467459 2.718804,-0.5467459 2.172984,0 3.449997,1.3051355 1.277015,1.2963166 1.277015,3.5362128 0,1.7989699 -0.535522,3.4744809 -0.535522,1.675512 -1.472686,2.848371 -0.875372,1.10231 -2.080297,1.657875 -1.194627,0.546745 -2.729103,0.546745 z m 6.9,-0.255735 2.39955,-12.8749862 h 3.882535 l 1.349104,6.9136902 1.410893,-6.9136902 h 3.522087 L 91.579881,17.236307 h -3.861937 l -1.431491,-6.666774 -1.328508,6.666774 z m 12.461187,-3.9595 q 0.700294,0.502654 1.472685,0.776027 0.772391,0.273372 1.482984,0.273372 0.628207,0 0.998951,-0.291009 0.370743,-0.299828 0.370743,-0.811301 0,-0.440923 -0.308954,-0.873029 -0.308955,-0.440925 -1.194616,-1.164041 -1.071057,-0.890666 -1.472695,-1.569689 -0.401638,-0.6790229 -0.401638,-1.4991417 0,-1.8430636 1.359396,-2.9277371 1.369704,-1.0846734 3.707464,-1.0846734 0.947455,0 1.802245,0.1851882 0.85477,0.1763695 1.74044,0.5555645 l -0.59731,3.1393797 q -0.6797,-0.4056493 -1.32852,-0.6172938 -0.6385,-0.2116435 -1.22552,-0.2116435 -0.525221,0 -0.834175,0.2380994 -0.298647,0.2292805 -0.298647,0.6349299 0,0.5467466 1.163722,1.5344166 0.14418,0.1234583 0.22657,0.1940072 1.17403,0.98767 1.54478,1.693149 0.37074,0.705478 0.37074,1.631419 0,2.063525 -1.49329,3.25402 -1.482972,1.190495 -4.067897,1.190495 -1.101942,0 -2.090594,-0.22928 -0.978364,-0.220463 -1.647764,-0.617294 z" /></g></svg>
