<?xml version="1.0" encoding="UTF-8" standalone="no"?>
<svg
   viewBox="0 0 112.583 30"
   version="1.1"
   id="svg3"
   sodipodi:docname="tools.svg"
   width="112.583"
   height="30"
   inkscape:version="1.3.2 (091e20e, 2023-11-25)"
   xmlns:inkscape="http://www.inkscape.org/namespaces/inkscape"
   xmlns:sodipodi="http://sodipodi.sourceforge.net/DTD/sodipodi-0.dtd"
   xmlns="http://www.w3.org/2000/svg"
   xmlns:svg="http://www.w3.org/2000/svg">
  <defs
     id="defs3" />
  <sodipodi:namedview
     id="namedview3"
     pagecolor="#ffffff"
     bordercolor="#000000"
     borderopacity="0.25"
     inkscape:showpageshadow="2"
     inkscape:pageopacity="0.0"
     inkscape:pagecheckerboard="0"
     inkscape:deskcolor="#d1d1d1"
     inkscape:zoom="3.764752"
     inkscape:cx="45.421319"
     inkscape:cy="22.84347"
     inkscape:window-width="1376"
     inkscape:window-height="803"
     inkscape:window-x="209"
     inkscape:window-y="25"
     inkscape:window-maximized="0"
     inkscape:current-layer="svg3" />
  <path
     d="M 21.936,20.24 V 17.613 L 19.548,16.738 C 19.34,15.935 19.063,15.18 18.65,14.482 l 0.024,-0.003 1.135,-2.362 -1.854,-1.857 -2.364,1.125 -0.003,0.003 C 14.891,10.976 14.134,10.715 13.331,10.507 L 12.455,8.1 H 9.823 l -0.876,2.407 c -0.805,0.208 -1.562,0.498 -2.259,0.91 L 6.683,11.398 4.317,10.266 2.457,12.12 3.584,14.481 3.587,14.484 C 3.174,15.18 2.765,15.937 2.558,16.74 L 0,17.613 v 2.627 l 2.558,0.875 c 0.207,0.802 0.573,1.56 0.985,2.255 l 0.018,0.003 -1.114,2.363 1.865,1.857 2.37,-1.124 0.005,-0.002 c 0.696,0.41 1.455,0.795 2.258,1.002 L 9.823,30 h 2.632 l 0.876,-2.531 c 0.804,-0.207 1.562,-0.559 2.258,-0.971 l 0.005,-0.012 2.367,1.115 1.859,-1.861 -1.127,-2.365 -0.002,-0.003 c 0.412,-0.697 0.649,-1.455 0.857,-2.257 z m -10.798,3.064 c -2.421,0 -4.385,-1.96 -4.385,-4.377 0,-2.417 1.964,-4.378 4.385,-4.378 2.424,0 4.386,1.961 4.386,4.378 0,2.417 -1.962,4.377 -4.386,4.377 z"
     style="fill:#ffffff"
     id="path1" />
  <path
     d="M 30.345,4.37 29.77,2.984 28.281,3.058 C 27.995,2.679 27.665,2.349 27.295,2.072 L 27.296,2.069 27.375,0.576 25.986,0 24.983,1.111 V 1.113 C 24.524,1.049 24.053,1.044 23.585,1.111 L 22.581,0 21.192,0.574 21.27,2.067 c -0.378,0.285 -0.708,0.619 -0.987,0.989 l -0.001,-10e-4 -1.497,-0.077 -0.573,1.386 1.11,1 0.003,0.002 C 19.272,5.795 19.25,6.297 19.316,6.765 l -1.121,1.005 0.576,1.387 1.503,-0.082 c 0.285,0.379 0.624,0.707 0.994,0.984 v 0.003 l -0.076,1.493 1.523,0.574 1.136,-1.111 v -0.002 c 0.294,0.054 0.796,0.067 1.265,0.002 l 0.937,1.111 1.355,-0.574 -0.094,-1.493 c 0.379,-0.284 0.702,-0.62 0.979,-0.989 L 28.292,9.074 29.785,9.151 30.36,7.763 29.247,6.764 29.243,6.762 C 29.309,6.304 29.305,5.837 29.24,5.369 Z M 25.242,8.376 C 23.964,8.903 22.5,8.298 21.97,7.021 21.439,5.745 22.047,4.283 23.325,3.754 c 1.279,-0.529 2.744,0.077 3.274,1.353 0.529,1.278 -0.079,2.74 -1.357,3.269 z"
     style="fill:#ffffff"
     id="path2" />
  <path
     d="m 45.994,8.449 -0.873,4.788 h -4.153 l -2.437,13.914 h -5.717 l 2.437,-13.914 h -4.122 l 0.873,-4.788 z m 6.59,6.254 -1.384,7.78 h 2.376 c 0.783,0 1.365,-0.093 1.746,-0.279 0.381,-0.193 0.632,-0.629 0.752,-1.307 l 1.384,-7.78 h -2.407 c -0.763,0 -1.334,0.093 -1.715,0.28 -0.381,0.192 -0.632,0.628 -0.752,1.306 z M 56.044,8 c 2.548,0 4.363,0.496 5.446,1.486 1.083,0.985 1.625,2.504 1.625,4.559 0,2.054 -0.328,4.206 -0.983,6.453 -0.649,2.241 -1.682,3.983 -3.099,5.226 -1.411,1.25 -3.478,1.876 -6.199,1.876 -2.715,0 -4.614,-0.492 -5.697,-1.476 -1.083,-0.99 -1.625,-2.514 -1.625,-4.569 0,-0.977 0.141,-2.267 0.421,-3.87 0.281,-1.609 0.653,-2.995 1.114,-4.159 0.461,-1.17 1.083,-2.184 1.865,-3.042 C 50.417,8.828 52.794,8 56.044,8 Z m 15.497,6.703 -1.385,7.78 h 2.377 c 0.783,0 1.365,-0.093 1.746,-0.279 0.381,-0.193 0.631,-0.629 0.752,-1.307 l 1.384,-7.78 h -2.407 c -0.763,0 -1.334,0.093 -1.716,0.28 -0.38,0.192 -0.631,0.628 -0.751,1.306 z M 75.001,8 c 2.548,0 4.363,0.496 5.446,1.486 1.083,0.985 1.625,2.504 1.625,4.559 0,2.054 -0.328,4.206 -0.983,6.453 -0.649,2.241 -1.682,3.983 -3.099,5.226 -1.411,1.25 -3.478,1.876 -6.199,1.876 -2.715,0 -4.614,-0.492 -5.697,-1.476 -1.083,-0.99 -1.625,-2.514 -1.625,-4.569 0,-0.977 0.141,-2.267 0.421,-3.87 0.281,-1.609 0.653,-2.995 1.114,-4.159 0.461,-1.17 1.083,-2.184 1.865,-3.042 C 69.374,8.828 71.751,8 75.001,8 Z m 20.28,14.363 -0.843,4.788 H 83.004 l 3.31,-18.702 h 5.717 l -2.467,13.914 z m 0,4.459 1.685,-4.937 c 1.685,0.458 3.229,0.688 4.634,0.688 1.404,0 2.537,-0.06 3.4,-0.18 l 0.24,-1.496 -2.497,-0.24 c -1.905,-0.179 -3.257,-0.607 -4.052,-1.286 -0.79,-0.679 -1.184,-1.636 -1.184,-2.873 0,-0.538 0.061,-1.137 0.181,-1.795 0.462,-2.554 1.297,-4.309 2.507,-5.266 1.217,-0.958 3.1,-1.437 5.647,-1.437 2.548,0 4.795,0.249 6.741,0.748 l -1.565,4.788 c -1.745,-0.299 -3.149,-0.449 -4.213,-0.449 -1.063,0 -1.965,0.05 -2.708,0.15 l -0.241,1.466 2.017,0.209 c 2.046,0.22 3.5,0.705 4.363,1.456 0.862,0.745 1.294,1.746 1.294,3.003 0,1.276 -0.281,2.593 -0.843,3.95 -0.281,0.698 -0.589,1.283 -0.923,1.755 -0.328,0.466 -0.749,0.861 -1.263,1.187 -0.509,0.332 -0.973,0.582 -1.395,0.748 -0.421,0.173 -0.952,0.299 -1.595,0.379 -0.942,0.14 -2.096,0.21 -3.46,0.21 -2.487,0 -4.744,-0.26 -6.77,-0.778 z"
     style="white-space:pre;fill:#ffffff"
     id="path3" />
</svg>
