<?xml version="1.0" encoding="UTF-8" standalone="no"?>
<svg
   viewBox="0 0 200 40"
   version="1.1"
   id="svg1"
   sodipodi:docname="vhs.svg"
   inkscape:version="1.3.2 (091e20e, 2023-11-25)"
   xmlns:inkscape="http://www.inkscape.org/namespaces/inkscape"
   xmlns:sodipodi="http://sodipodi.sourceforge.net/DTD/sodipodi-0.dtd"
   xmlns="http://www.w3.org/2000/svg"
   xmlns:svg="http://www.w3.org/2000/svg">
  <defs
     id="defs1">
    <rect
       x="4.3084263"
       y="3.446741"
       width="188.70907"
       height="32.169583"
       id="rect2" />
    <filter
       style="color-interpolation-filters:sRGB"
       inkscape:label="Invert"
       id="filter1"
       x="0"
       y="0"
       width="1"
       height="1">
      <feColorMatrix
         values="-1 0 0 0 1 0 -1 0 0 1 0 0 -1 0 1 -0.21 -0.72 -0.07 1.52584 0 "
         result="color2"
         id="feColorMatrix1" />
    </filter>
  </defs>
  <sodipodi:namedview
     id="namedview1"
     pagecolor="#ffffff"
     bordercolor="#000000"
     borderopacity="0.25"
     inkscape:showpageshadow="2"
     inkscape:pageopacity="0.0"
     inkscape:pagecheckerboard="0"
     inkscape:deskcolor="#d1d1d1"
     inkscape:zoom="2.55733"
     inkscape:cx="94.825463"
     inkscape:cy="45.359809"
     inkscape:window-width="1376"
     inkscape:window-height="905"
     inkscape:window-x="209"
     inkscape:window-y="25"
     inkscape:window-maximized="0"
     inkscape:current-layer="svg1" />
  <path
     id="text4"
     style="font-style:italic;font-stretch:condensed;font-size:32px;font-family:'Futura XBlkCnIt BT';-inkscape-font-specification:'Futura XBlkCnIt BT, Italic Condensed';fill:#ffffff;stroke-width:2.76545;stroke-linecap:square;stroke-opacity:0.988722;paint-order:markers fill stroke"
     inkscape:label="text4"
     d="m 41.305517,14.984663 -3.516805,16.921875 h -5.992227 l 5.736149,-22.8125 h 8.143282 l 0.06829,12.03125 4.233824,-12.03125 h 8.109139 l -2.133984,22.8125 h -6.009301 l 2.270559,-16.890625 -5.906867,16.890625 h -4.711837 z m 24.720071,9.3125 q 0,1.28125 0.375581,1.875 0.375581,0.578125 1.195031,0.578125 0.73409,0 1.263318,-0.53125 0.5463,-0.53125 0.973097,-1.703125 0.563372,-1.515625 0.904809,-3.65625 0.35851,-2.15625 0.35851,-4.09375 0,-1.28125 -0.35851,-1.875 -0.358509,-0.609375 -1.109671,-0.609375 -0.802378,0 -1.36575,0.53125 -0.5463,0.515625 -0.938953,1.671875 -0.563372,1.578125 -0.938953,3.75 -0.358509,2.171875 -0.358509,4.0625 z m 0.836521,8.0625 q -3.533877,0 -5.684933,-2.34375 -2.151056,-2.34375 -2.151056,-6.234375 0,-3.171875 0.887738,-6.171875 0.904809,-3 2.441277,-5.03125 1.502325,-1.96875 3.46559,-2.9375 1.980337,-0.96875 4.506974,-0.96875 3.602165,0 5.719077,2.3125 2.116912,2.296875 2.116912,6.265625 0,3.1875 -0.887737,6.15625 -0.887737,2.96875 -2.441278,5.046875 -1.451109,1.953125 -3.448518,2.9375 -1.980337,0.96875 -4.524046,0.96875 z M 80.246457,9.094038 h 6.93118 l 0.03414,14.90625 5.172775,-14.90625 h 6.93118 l -9.662679,22.8125 h -7.648196 z m 16.559719,22.8125 3.943594,-22.8125 h 6.96532 l -3.96067,22.8125 z m 10.021184,0 3.96067,-22.8125 H 123.131 l -0.95603,5.53125 h -5.37764 l -0.52922,2.90625 h 4.86547 l -0.9048,5.34375 h -4.86549 l -0.56336,3.140625 h 5.39471 l -1.02432,5.890625 z m 15.24518,-7.015625 q 1.16089,0.890625 2.44128,1.375 1.28039,0.484375 2.45834,0.484375 1.04139,0 1.65598,-0.515625 0.61459,-0.53125 0.61459,-1.4375 0,-0.78125 -0.51216,-1.546875 -0.51215,-0.78125 -1.98033,-2.0625 -1.77548,-1.578125 -2.44129,-2.78125 -0.66579,-1.203125 -0.66579,-2.65625 0,-3.265625 2.25348,-5.1875 2.27056,-1.921875 6.14588,-1.921875 1.57061,0 2.98757,0.328125 1.41697,0.3125 2.88515,0.984375 l -0.99017,5.5625 q -1.12674,-0.71875 -2.20228,-1.09375 -1.05845,-0.375 -2.03154,-0.375 -0.87067,0 -1.38283,0.421875 -0.49508,0.40625 -0.49508,1.125 0,0.96875 1.92912,2.71875 0.239,0.21875 0.37558,0.34375 1.94619,1.75 2.56078,3 0.61459,1.25 0.61459,2.890625 0,3.65625 -2.47542,5.765625 -2.45835,2.109375 -6.74339,2.109375 -1.82669,0 -3.46559,-0.40625 -1.62183,-0.390625 -2.7315,-1.09375 z m 55.71013,-13.470857 -22.9756,6.672516 -1.27929,-2.795727 22.9756,-6.6617764 z m 1.65859,19.208541 H 154.84522 V 18.241129 h 24.59604 z M 176.37321,11.436165 V 9.0574703 l -1.62268,0.4671477 v 2.387644 z m -3.23189,0.945034 V 9.9935556 l -1.62941,0.4617784 v 2.407332 z m -3.34411,0.919977 V 10.93859 l -1.62941,0.467148 v 2.373325 z m 9.18844,7.562065 -1.02343,-2.244457 h -1.7349 l 1.02344,2.244457 z m -3.54385,0 -1.02344,-2.244457 h -1.74163 l 1.03017,2.244457 z m -8.90117,-6.556176 v -2.393013 l -1.62717,0.467147 v 2.387644 z m 5.48299,6.556176 -1.02343,-2.244457 h -1.7349 l 1.02343,2.244457 z m -8.8271,-5.641569 v -2.373325 l -1.64737,0.467148 v 2.387643 z m 5.28324,5.641569 -1.02343,-2.244457 h -1.73938 l 1.02343,2.244457 z m -8.48371,-4.660738 V 13.8077 l -1.64063,0.483256 v 2.373325 z m 4.99148,4.660738 -1.02344,-2.244457 h -1.73489 l 1.02343,2.244457 z m -8.35354,-3.746131 v -2.373325 l -1.62942,0.461779 v 2.393013 z m 4.82988,3.746131 -1.04139,-2.244457 h -1.72143 l 1.00548,2.244457 z m -3.45633,0 -1.04139,-2.244457 h -1.73489 l 1.02343,2.244457 z" />
</svg>
