<?xml version="1.0" encoding="UTF-8" standalone="no"?>
<svg
   version="1.1"
   viewBox="0 0 156 45"
   id="svg12"
   sodipodi:docname="wolf.svg"
   inkscape:version="1.3.2 (091e20e, 2023-11-25)"
   xmlns:inkscape="http://www.inkscape.org/namespaces/inkscape"
   xmlns:sodipodi="http://sodipodi.sourceforge.net/DTD/sodipodi-0.dtd"
   xmlns="http://www.w3.org/2000/svg"
   xmlns:svg="http://www.w3.org/2000/svg">
  <defs
     id="defs12" />
  <sodipodi:namedview
     id="namedview12"
     pagecolor="#ffffff"
     bordercolor="#000000"
     borderopacity="0.25"
     inkscape:showpageshadow="2"
     inkscape:pageopacity="0.0"
     inkscape:pagecheckerboard="0"
     inkscape:deskcolor="#d1d1d1"
     inkscape:zoom="5.2444444"
     inkscape:cx="77.987288"
     inkscape:cy="22.404661"
     inkscape:window-width="1376"
     inkscape:window-height="708"
     inkscape:window-x="209"
     inkscape:window-y="25"
     inkscape:window-maximized="0"
     inkscape:current-layer="svg12" />
  <title
     id="title1">Wolfenstein logo</title>
  <path
     id="path1"
     d="M 60 0 L 54 4 L 54 40 L 60 36 L 60 13 L 66 9 L 60 9 L 60 4 L 66 0 L 60 0 z M 52 5 L 46 9 L 46 45 L 52 41 L 52 5 z M 116 5 L 110 9 L 110 40 L 116 36 L 116 13 L 122 9 L 116 9 L 116 5 z M 140 5 L 134 9 L 134 13 L 140 9 L 140 5 z M 0 9 L 6 13 L 6 45 L 14 40 L 14 45 L 28 36 L 28 9 L 22 9 L 22 34 L 20 35 L 20 9 L 14 9 L 14 34 L 12 35 L 12 9 L 0 9 z M 30 9 L 30 36 L 44 36 L 44 9 L 30 9 z M 70 9 L 62 14 L 62 36 L 76 36 L 76 30 L 68 30 L 68 17 L 70 15.75 L 70 28 L 76 24 L 76 9 L 70 9 z M 78 9 L 78 36 L 84 36 L 84 15 L 86 15 L 86 36 L 92 36 L 92 9 L 78 9 z M 94 9 L 94 21 L 102 26 L 102 30 L 100 30 L 100 26 L 94 30 L 94 36 L 108 36 L 108 24 L 100 19 L 100 15 L 102 15 L 102 19 L 108 15 L 108 9 L 94 9 z M 126 9 L 118 14 L 118 36 L 132 36 L 132 30 L 124 30 L 124 17 L 126 15.75 L 126 28 L 132 24 L 132 9 L 126 9 z M 142 9 L 142 36 L 148 36 L 148 15 L 150 15 L 150 36 L 156 36 L 156 9 L 142 9 z M 140 11 L 134 15 L 134 36 L 140 36 L 140 11 z M 36 15 L 38 15 L 38 30 L 36 30 L 36 15 z "
     style="fill:#ffffff" />
</svg>
